<svg width="50" height="50" viewBox="0 0 50 50" fill="none" xmlns="http://www.w3.org/2000/svg">
<g clip-path="url(#clip0_178_363)">
<g clip-path="url(#clip1_178_363)">
<path fill-rule="evenodd" clip-rule="evenodd" d="M4.16602 7.16699V34.3753V38.7086C4.16602 40.9178 5.95689 42.7086 8.16603 42.7086H13.7077C15.9168 42.7086 17.7077 40.9177 17.7077 38.7086V35.3753C17.7077 34.823 18.1554 34.3753 18.7077 34.3753H37.4993V7.16699C37.4993 5.51013 36.1562 4.16699 34.4993 4.16699H7.16602C5.50917 4.16699 4.16602 5.51014 4.16602 7.16699ZM15.2401 20.0929L20.0518 26.1075C20.4521 26.6079 21.2132 26.6079 21.6135 26.1075L26.4253 20.0929C26.8508 19.5609 27.0827 18.9 27.0827 18.2188V17.5836C27.0827 15.9268 25.7395 14.5836 24.0827 14.5836H23.6378C22.8422 14.5836 22.0791 14.8997 21.5165 15.4623L20.8327 16.1461L20.1488 15.4623C19.5862 14.8997 18.8232 14.5836 18.0275 14.5836H17.5827C15.9258 14.5836 14.5827 15.9268 14.5827 17.5836V18.2188C14.5827 18.9 14.8145 19.5609 15.2401 20.0929ZM45.5755 39.5625C44.6578 43.1674 41.3899 45.8336 37.4993 45.8336H12.4993C16.3899 45.8336 19.6578 43.1674 20.5755 39.5625C20.8594 38.4475 21.7654 37.5003 22.916 37.5003H43.7493C44.8999 37.5003 45.8594 38.4475 45.5755 39.5625Z" fill="#DA9760"/>
</g>
</g>
<defs>
<clipPath id="clip0_178_363">
<rect width="50" height="50" fill="white"/>
</clipPath>
<clipPath id="clip1_178_363">
<rect width="50" height="50" fill="white"/>
</clipPath>
</defs>
</svg>
