<svg width="50" height="50" viewBox="0 0 50 50" fill="none" xmlns="http://www.w3.org/2000/svg">
<g clip-path="url(#clip0_178_371)">
<g clip-path="url(#clip1_178_371)">
<path fill-rule="evenodd" clip-rule="evenodd" d="M33.333 7.08806L34.2893 6.13675C36.9301 3.50976 41.2116 3.50976 43.8524 6.13675C46.4932 8.76373 46.4932 13.023 43.8524 15.6499L35.2456 24.2118C34.1893 25.2626 32.4767 25.2626 31.4204 24.2118L22.8136 15.6499C20.1728 13.023 20.1728 8.76373 22.8136 6.13675C25.4543 3.50976 29.7359 3.50976 32.3767 6.13675L33.333 7.08806ZM4.16602 20.8332H8.33269L21.379 26.541C23.3828 27.4177 24.3043 29.7466 23.4427 31.757C23.3119 32.0621 23.1475 32.3426 22.9557 32.5958L28.61 36.1802C30.3457 37.0481 32.2596 37.4999 34.2002 37.4999H37.4993C39.8005 37.4999 41.666 39.3654 41.666 41.6665C41.666 43.9677 39.8005 45.8332 37.4993 45.8332H20.6005C18.013 45.8332 15.4612 45.2308 13.1469 44.0737L4.16602 39.5832V20.8332Z" fill="#DA9760"/>
</g>
</g>
<defs>
<clipPath id="clip0_178_371">
<rect width="50" height="50" fill="white"/>
</clipPath>
<clipPath id="clip1_178_371">
<rect width="50" height="50" fill="white"/>
</clipPath>
</defs>
</svg>
