<svg width="155" height="44" viewBox="0 0 155 44" fill="none" xmlns="http://www.w3.org/2000/svg">
<path d="M48.2505 36.1418V12.7509H57.2048C58.8951 12.7509 60.3 13.0174 61.4192 13.5504C62.5461 14.0758 63.3875 14.7953 63.9434 15.709C64.5068 16.6228 64.7885 17.6583 64.7885 18.8156C64.7885 19.7674 64.6058 20.5821 64.2403 21.2598C63.8748 21.9299 63.3837 22.4743 62.767 22.8931C62.1502 23.3118 61.4611 23.6126 60.6997 23.7953V24.0238C61.5296 24.0695 62.3253 24.3245 63.0868 24.789C63.8558 25.2458 64.484 25.8931 64.9713 26.7306C65.4586 27.5682 65.7022 28.5809 65.7022 29.7687C65.7022 30.9793 65.4091 32.0682 64.8228 33.0352C64.2365 33.9946 63.3533 34.7522 62.1731 35.308C60.9928 35.8639 59.5081 36.1418 57.7187 36.1418H48.2505ZM52.4878 32.6012H57.0449C58.5829 32.6012 59.6908 32.308 60.3685 31.7217C61.0538 31.1278 61.3964 30.3664 61.3964 29.4375C61.3964 28.7446 61.2251 28.1202 60.8824 27.5644C60.5398 27.0009 60.0525 26.5593 59.4205 26.2395C58.7885 25.9121 58.0347 25.7484 57.1591 25.7484H52.4878V32.6012ZM52.4878 22.6989H56.6794C57.4104 22.6989 58.069 22.5656 58.6553 22.2991C59.2416 22.025 59.7022 21.6405 60.0373 21.1456C60.3799 20.6431 60.5512 20.0492 60.5512 19.3639C60.5512 18.4578 60.2314 17.7116 59.5918 17.1253C58.9599 16.539 58.0195 16.2459 56.7708 16.2459H52.4878V22.6989ZM72.3923 36.1418H67.8694L76.1042 12.7509H81.3352L89.5814 36.1418H85.0585L78.8111 17.5479H78.6283L72.3923 36.1418ZM72.5407 26.9705H84.8758V30.374H72.5407V26.9705ZM92.6623 36.1418V12.7509H101.434C103.231 12.7509 104.738 13.0631 105.957 13.6875C107.183 14.3118 108.108 15.1875 108.732 16.3144C109.364 17.4337 109.68 18.7395 109.68 20.2319C109.68 21.7319 109.36 23.0339 108.721 24.138C108.089 25.2344 107.156 26.0834 105.922 26.6849C104.689 27.2788 103.174 27.5758 101.377 27.5758H95.1293V24.058H100.806C101.856 24.058 102.717 23.9134 103.387 23.624C104.057 23.3271 104.552 22.8969 104.872 22.3334C105.199 21.7623 105.363 21.0618 105.363 20.2319C105.363 19.4019 105.199 18.6938 104.872 18.1075C104.544 17.5136 104.045 17.0644 103.375 16.7598C102.705 16.4476 101.841 16.2915 100.783 16.2915H96.8996V36.1418H92.6623ZM104.746 25.5428L110.537 36.1418H105.808L100.12 25.5428H104.746ZM113.58 36.1418V12.7509H117.818V22.6532H128.657V12.7509H132.905V36.1418H128.657V26.2052H117.818V36.1418H113.58ZM137.514 36.1418V12.7509H152.499V16.303H141.751V22.6532H151.471V26.2052H141.751V36.1418H137.514Z" fill="white"/>
<path d="M15.9647 10.7916L15.9915 8.50773L11.4238 8.45401L11.397 10.7379L15.9647 10.7916ZM13.6808 39.2039L11.3969 39.2229C11.4074 40.4768 12.4268 41.4879 13.6808 41.4879V39.2039ZM3 3V0.715994C1.73858 0.715994 0.715994 1.73858 0.715994 3L3 3ZM26.7939 9.24205C26.7939 10.5035 27.8165 11.5261 29.0779 11.5261C30.3393 11.5261 31.3619 10.5035 31.3619 9.24205H26.7939ZM0.715994 39.2039V41.4879H5.28401V39.2039H0.715994ZM13.6808 41.4879H24.7778V36.9199H13.6808V41.4879ZM11.397 10.7379L11.2583 22.5315L15.826 22.5853L15.9647 10.7916L11.397 10.7379ZM11.2582 22.5774L11.3969 39.2229L15.9648 39.1848L15.826 22.5394L11.2582 22.5774ZM24.7778 20.2744H13.5421V24.8424H24.7778V20.2744ZM13.5421 20.2744H3V24.8424H13.5421V20.2744ZM5.28401 22.5584V3H0.715994V22.5584H5.28401ZM3 5.28401H22.8358V0.715994H3V5.28401ZM0.715994 22.5584V39.2039H5.28401V22.5584H0.715994ZM35.3845 30.8811C35.3845 25.0232 30.6357 20.2744 24.7778 20.2744V24.8424C28.1129 24.8424 30.8165 27.546 30.8165 30.8811H35.3845ZM22.8358 5.28401C25.0218 5.28401 26.7939 7.05608 26.7939 9.24205H31.3619C31.3619 4.53324 27.5446 0.715994 22.8358 0.715994V5.28401ZM24.7778 41.4879C30.6357 41.4879 35.3845 36.7391 35.3845 30.8811H30.8165C30.8165 34.2162 28.1129 36.9199 24.7778 36.9199V41.4879Z" fill="#DA9760"/>
</svg>
